# xmcd
#
# Track frame offsets: 
#        150
#        21579
#        32970
#        53194
#        67171
#        79923
#        94098
#        108199
#        123842
#        135730
#        149174
#        161028
#        175455
#        198120
#
# Disc length: 2892 seconds
#
# Revision: 0
# Processed by: cddbd v1.5.2PL0 Copyright (c) Steve Scherf et al.
# Submitted via: ExactAudioCopyFreeDBPlugin 1.0
#
DISCID=d10b4a0e
DTITLE=Jo2Plainp - Entre Euphorie and Crise d'Angoisse
DYEAR=2017
DGENRE=Hip-Hop
TTITLE0=Touche d'espoir
TTITLE1=La peur de l'autre
TTITLE2=Ne m'attendez plus
TTITLE3=Si c'est ça le progrès
TTITLE4=Daily days ft Anastasia
TTITLE5=Avant que...
TTITLE6=Crash test ft Jagwar Kilah
TTITLE7=Méoldie du bonheur ft Sanga
TTITLE8=Largue ton mec
TTITLE9=Pourquoi tu veux pas... ?
TTITLE10=Le fossoyeur
TTITLE11=Entre euphorie et crise d'angoisse
TTITLE12=Bye bye !
TTITLE13=Désolé Mama ft J.A.X
EXTD=
EXTT0=
EXTT1=
EXTT2=
EXTT3=
EXTT4=
EXTT5=
EXTT6=
EXTT7=
EXTT8=
EXTT9=
EXTT10=
EXTT11=
EXTT12=
EXTT13=
PLAYORDER=
